<svg viewBox="0 0 256 256" fill="none" xmlns="http://www.w3.org/2000/svg">
  <rect width="256" height="256" rx="56" fill="#1C1B1A"></rect>
  <path d="M96 64 C72 64 64 80 64 104 C64 116 56 128 40 128 C56 128 64 140 64 152 C64 176 72 192 96 192" stroke="#7A7571" stroke-width="14" stroke-linecap="round" stroke-linejoin="round"></path>
  <path d="M160 64 C184 64 192 80 192 104 C192 116 200 128 216 128 C200 128 192 140 192 152 C192 176 184 192 160 192" stroke="#7A7571" stroke-width="14" stroke-linecap="round" stroke-linejoin="round"></path>
  <path d="M144 92 A 36 36 0 1 0 144 164" stroke="#D97757" stroke-width="16" stroke-linecap="round"></path>
</svg>
